<?xml version="1.0" standalone="no"?>
<!DOCTYPE svg PUBLIC "-//W3C//DTD SVG 20010904//EN"
 "http://www.w3.org/TR/2001/REC-SVG-20010904/DTD/svg10.dtd">
<svg version="1.0" xmlns="http://www.w3.org/2000/svg"
 width="981.000000pt" height="842.000000pt" viewBox="0 0 981.000000 842.000000"
 preserveAspectRatio="xMidYMid meet">

<g transform="translate(0.000000,842.000000) scale(0.100000,-0.100000)"
fill="#000000" stroke="none">
<path d="M5455 8396 c-134 -31 -232 -84 -332 -179 -159 -151 -235 -345 -219
-560 7 -98 40 -211 88 -297 24 -42 312 -336 1227 -1252 l1196 -1198 -3387 0
c-3797 0 -3469 7 -3638 -76 -79 -39 -110 -62 -181 -133 -71 -71 -94 -102 -133
-181 -101 -206 -101 -414 0 -620 39 -79 62 -110 133 -181 72 -72 102 -94 181
-132 172 -84 -163 -77 3632 -77 l3383 0 -1171 -1172 c-644 -645 -1185 -1194
-1203 -1221 -18 -26 -47 -80 -66 -120 -174 -370 23 -816 420 -953 71 -25 95
-28 210 -29 117 0 139 3 219 29 51 17 118 49 160 76 105 69 3660 3628 3722
3726 24 38 56 107 71 154 25 76 28 99 28 215 -1 115 -4 139 -29 210 -61 178
41 70 -1915 2027 -1950 1950 -1860 1865 -2032 1922 -103 35 -267 44 -364 22z"/>
</g>
</svg>
