<?xml version="1.0" standalone="no"?>
<!DOCTYPE svg PUBLIC "-//W3C//DTD SVG 20010904//EN"
 "http://www.w3.org/TR/2001/REC-SVG-20010904/DTD/svg10.dtd">
<svg version="1.0" xmlns="http://www.w3.org/2000/svg"
 width="980.000000pt" height="700.000000pt" viewBox="0 0 980.000000 700.000000"
 preserveAspectRatio="xMidYMid meet">

<g transform="translate(0.000000,700.000000) scale(0.100000,-0.100000)"
fill="#000000" stroke="none">
<path d="M560 6985 c-181 -36 -342 -147 -446 -306 -181 -277 -140 -646 97
-876 100 -97 224 -164 353 -188 110 -21 859 -22 969 -1 276 53 500 277 553
553 72 376 -178 747 -553 819 -102 19 -875 19 -973 -1z"/>
<path d="M4060 6985 c-181 -36 -342 -147 -446 -306 -181 -277 -140 -646 97
-876 100 -97 224 -164 353 -188 115 -22 5054 -23 5169 -1 276 53 500 277 553
553 72 379 -176 747 -553 819 -106 20 -5071 19 -5173 -1z"/>
<path d="M560 4185 c-181 -36 -342 -147 -446 -306 -181 -277 -140 -646 97
-876 100 -97 224 -164 353 -188 110 -21 859 -22 969 -1 276 53 500 277 553
553 72 379 -176 747 -553 819 -102 19 -875 19 -973 -1z"/>
<path d="M4060 4185 c-181 -36 -342 -147 -446 -306 -181 -277 -140 -646 97
-876 100 -97 224 -164 353 -188 115 -22 5054 -23 5169 -1 276 53 500 277 553
553 72 379 -176 747 -553 819 -106 20 -5071 19 -5173 -1z"/>
<path d="M560 1385 c-181 -36 -342 -147 -446 -306 -181 -277 -140 -646 97
-876 100 -97 224 -164 353 -188 110 -21 859 -22 969 -1 276 53 500 277 553
553 72 379 -176 747 -553 819 -102 19 -875 19 -973 -1z"/>
<path d="M4060 1385 c-181 -36 -342 -147 -446 -306 -181 -277 -140 -646 97
-876 100 -97 224 -164 353 -188 115 -22 5054 -23 5169 -1 276 53 500 277 553
553 72 379 -176 747 -553 819 -106 20 -5071 19 -5173 -1z"/>
</g>
</svg>
